<?xml version="1.0" encoding="utf-8"?>
<!-- Generator: Adobe Illustrator 22.1.0, SVG Export Plug-In . SVG Version: 6.00 Build 0)  -->
<svg version="1.1" id="Layer_1" xmlns="http://www.w3.org/2000/svg" xmlns:xlink="http://www.w3.org/1999/xlink" x="0px" y="0px"
	 viewBox="0 0 592 840" style="enable-background:new 0 0 592 840;" xml:space="preserve">
<style type="text/css">
	.st0{fill:#FFFFFF;}
</style>
<g>
	<path class="st0" d="M440.3,394.7L440.3,394.7h-72v13.7c0,0,69.6,0,71,0c0,1.4,0,25.8,0,25.8h16.1v-39.8h-0.8h-14.3V394.7z"/>
	<path class="st0" d="M397.6,388c15.8,0,28.7-12.3,28.7-27.2c0-4.9-1.8-9.9-4.3-14c2.1,0,9.7,0,9.7,0v-13.2c0,0-24.8,0-26.3,0
		c0-1.1,0-10.2,0-10.2h-0.8h-14.8c0,0,0,8.8,0,10.2c-1.4,0-26.9,0-26.9,0v13.2c0,0,8.5,0,10.5,0c-2.9,4.1-4.6,9.1-4.6,14
		C368.5,375.8,381.9,388,397.6,388L397.6,388z M397.6,374.9c-7.6,0-13.4-6.2-13.4-13.7s6.2-13.7,13.4-13.7c7.6,0,13.4,6.2,13.4,13.7
		C411.1,369.1,405.3,374.9,397.6,374.9L397.6,374.9z"/>
	<path class="st0" d="M455.9,331.6h-0.8h-15.5v57.3h16.1c0,0,0-19.6,0-20.7c1.1,0,10.8,0,10.8,0v-14.3c0,0-9.4,0-10.8,0
		C455.9,352.4,455.9,331.6,455.9,331.6L455.9,331.6z"/>
	<path class="st0" d="M103.5,358.2v-16.7V333v-0.8h-0.8h-79v14c0,0,62.3,0,63.7,0c0,1.4,0,25.8,0,25.8c0,0.3-0.3,32.2-4.9,40.1
		c-0.8,0-19,0-20.4,0c0-1.4,0-36.3,0-36.3H46.8c0,0,0,34.7,0,36.3c-1.4,0-34.2,0-34.2,0v14h101.1v-14c0,0-13.4,0-15.3,0
		C99.8,408.2,103.5,393.3,103.5,358.2L103.5,358.2z"/>
	<path class="st0" d="M564.6,412.2c1.1-3.5,4.9-18.1,4.9-54.6v-12V333v-0.8h-0.8h-79.3v14c0,0,62.3,0,63.7,0c0,1.4,0,25.2,0,25.2
		c0,7-0.8,34.2-4.9,40.6c-0.6,0-6.7,0-7.8,0c0-1.4,0-36,0-36h-15.3c0,0,0,34.5,0,36c-1.1,0-10.2,0-11.8,0c0-1.4,0-36,0-36h-15
		c0,0,0,34.5,0,36c-1.4,0-19.6,0-19.6,0v14h100.8v-14C579.8,412.2,567,412.2,564.6,412.2L564.6,412.2z"/>
	<path class="st0" d="M205.6,331c0,0,0,16.9,0,18.5c-1.4,0-16.9,0-16.9,0v13.4c0,0,15.8,0,16.9,0c0,1.1,0,14,0,15.5
		c-1.4,0-16.9,0-16.9,0v13.4c0,0,15.8,0,16.9,0c0,1.1,0,9.7,0,10.2c-5.9,5.9-20.2,5.6-20.4,5.6c0,0-34.2,0-35.7,0
		c0-1.4,0-25.2,0-26.6c1.4,0,32.5,0,32.5,0V332h-49.7v13.4c0,0,32.8,0,34.2,0c0,1.4,0,20.2,0,21.6c-1.4,0-33.3,0-33.3,0s0,0,0,0.3
		h-0.3v41.9c0.6,11.1,10.8,12.6,11.1,12.6l39.2-0.3c13.2,0,19.9-2.4,22.3-3.5c0,2.7,0,15.8,0,15.8h16.1V331.3h-0.8h-15V331z"/>
	<path class="st0" d="M325.5,331.3c0,0,0,35.2,0,36.6c-1.1,0-9.1,0-10.2,0c0-1.4,0-36.6,0-36.6h-14.6c0,0,0,69.3,0,70.2
		c-6.7,4.3-18.1,4.1-18.5,4.1c0,0-17.2,0-18.8,0c0-1.4,0-58.5,0-59.9c1.4,0,24.2,0,24.2,0v-13.4h-40.3v74.2
		c0,11.8,10.8,12.9,11.1,12.9c0.3,0,10.8,0.3,22-0.3c10.8-0.6,16.9-2.4,20.2-3.8c0,2.1,0,18.1,0,18.1h14.6c0,0,0-49.7,0-51.1
		c1.1,0,9.1,0,10.2,0c0,1.4,0,51.1,0,51.1h14.7v-102h-0.8H325.5L325.5,331.3z"/>
	<path class="st0" d="M58.9,495.6c-1.4-0.8-2.7-2.1-5.3-4.9c0,0-11.3-12.9-13.2-14.6c0.6-0.6,13.4-16.4,13.4-16.4l0.8-0.8h-0.8h-5.6
		l-14.6,18.1v-18.2h-0.3h-6.2v38h6.7v-19.6L49.2,494c1.1,1.8,3.5,2.7,6.7,2.7h5.6l-1.1-0.8C59.1,496.3,58.9,495.6,58.9,495.6
		L58.9,495.6z"/>
	<path class="st0" d="M79.6,457.9c-5.9,0-10.8,2.1-14.8,5.9c-4.1,3.8-6.2,8.8-6.2,14c0,5.9,2.1,10.8,6.2,14.6
		c3.8,3.8,8.8,5.6,14.3,5.6s10.5-2.1,14.6-5.9c4.1-3.8,6.2-8.8,6.2-14.6c0-5.3-1.8-9.9-5.6-13.7C90.1,460,85.2,457.9,79.6,457.9
		 M79.3,493.1c-4.1,0-7.3-1.8-9.9-4.9c-2.4-2.9-3.8-6.7-3.8-10.8c0-4.1,1.1-7.6,3.8-10.5c2.4-2.7,5.9-4.1,9.9-4.1
		c4.1,0,7.3,1.8,9.9,4.9c2.4,2.9,3.5,6.7,3.5,11.1c0,4.1-1.1,7.6-3.5,10.2C86.6,491.5,83.4,493.1,79.3,493.1L79.3,493.1z"/>
	<path class="st0" d="M152.7,478.9c0.8,0,12.3,0,12.3,0V474c0,0-11.3,0-12.3,0c0-0.8,0-9.1,0-9.9c2.7,0,14.8,0,15.3,0h0.3v-5.3H146
		v0.3v37.7h23.7l0.8-5.3c0,0-17.2,0-17.8,0C152.7,491,152.7,479.6,152.7,478.9L152.7,478.9z"/>
	<path class="st0" d="M394.8,478.9c0.8,0,12.3,0,12.3,0V474c0,0-11.3,0-12.3,0c0-0.8,0-9.1,0-9.9c2.7,0,14.8,0,15.3,0h0.3v-5.3
		h-22.3v0.3v37.7h23.7l0.8-5.3c0,0-17.2,0-17.8,0C394.8,491,394.8,479.6,394.8,478.9L394.8,478.9z"/>
	<path class="st0" d="M196.8,458.7h-6.2L175.1,497h5.9c0,0,4.9-13.4,5.3-14c0.6,0,13.2,0,13.7,0c0.3,0.6,5.3,14,5.3,14h7.3
		L196.8,458.7L196.8,458.7 M197.8,478.1c-1.1,0-8.8,0-9.9,0c0.3-0.8,4.3-10.8,4.9-12.6C193.6,467,197.4,476.9,197.8,478.1
		L197.8,478.1z"/>
	<path class="st0" d="M272.9,458.7h-4.6v23.8c0,7-1.8,10.8-10.2,10.8h-0.8c-5.9,0-8.8-3.5-8.8-10.8v-23.8h-6.7v23.8
		c0,2.9,0,4.6,0.3,6.2c0.3,2.1,1.1,4.1,2.7,5.6c2.7,2.7,6.2,4.1,10.5,4.1h4.3c4.6,0,8.1-1.4,10.5-4.1c1.4-1.4,2.4-3.2,2.7-5.6
		c0.3-1.1,0.3-3.2,0.3-5.9v-23.7l0,0L272.9,458.7L272.9,458.7z"/>
	<path class="st0" d="M313.7,458.7v0.3c0,0,0,25.5,0,27.7c-1.4-1.8-22.3-28-22.3-28h-5.9V497h4.9c0,0,0-26.3,0-28.7
		c1.4,1.8,22.5,28.7,22.5,28.7h5.6v-38.2h-0.6H313.7L313.7,458.7z"/>
	<polygon class="st0" points="331.7,458.7 331.7,497.1 338.1,497.1 338.1,458.7 337.7,458.7 	"/>
	<polygon class="st0" points="490.3,458.7 490.3,467.3 490.3,488.6 490.3,497.1 496.8,497.1 496.8,488.6 496.8,467.3 496.8,459.4 
		496.8,458.7 496.5,458.7 	"/>
	<path class="st0" d="M375.2,458.7c0,0-10.2,28-10.8,30.1c-0.8-2.1-10.8-30.1-10.8-30.1h-7.6l14.3,38.2h5.9l14.8-38.2h-0.6H375.2
		L375.2,458.7z"/>
	<path class="st0" d="M477.5,477.8l-5.3-2.7l-4.3-2.1c-3.2-1.8-4.9-3.5-4.9-5.6c0-1.8,0.6-2.9,2.4-3.8c1.1-0.6,2.9-0.8,4.9-0.8
		c3.2,0,6.7,1.1,8.5,2.4l0.6,0.6V459H479c-2.7-0.8-5.6-1.1-8.5-1.1c-4.1,0-7.3,0.8-9.9,2.4c-3.2,1.8-4.6,4.3-4.6,7.8
		c0,3.5,1.8,6.4,5.3,8.8l1.8,0.8l7.6,3.8c3.2,1.8,4.9,3.5,4.9,5.9c0,1.8-0.8,2.9-2.7,4.1c-1.4,0.8-3.2,1.4-4.9,1.4
		c-4.1,0-7.8-1.1-11.3-3.2l-0.8-0.6l0.8,6.7h0.3c3.2,1.1,6.4,1.8,10.2,1.8c4.6,0,8.8-1.1,11.8-3.5c2.7-2.4,4.1-5.3,4.1-8.8
		C482.8,482.8,481,479.9,477.5,477.8L477.5,477.8z"/>
	<path class="st0" d="M503.8,458.7v0.3v4.6c0,0,9.9,0,10.8,0c0,0.8,0,33.3,0,33.3h6.7c0,0,0-32.5,0-33.3c0.8,0,10.8,0,10.8,0v-4.9
		H503.8L503.8,458.7z"/>
	<path class="st0" d="M564,458.7c0,0-9.7,15.3-10.5,16.1c-0.6-1.1-10.2-16.1-10.2-16.1H543h-7.3c0,0,13.7,21.3,13.7,21.6
		c0,0.3,0,16.7,0,16.7h6.7c0,0,0-16.4,0-16.7c0.3-0.3,14.3-21.6,14.3-21.6H564L564,458.7z"/>
	<path class="st0" d="M132.8,488.3c0,0-6.4-7.8-7.8-9.9c1.1-0.6,3.5-1.4,5.3-3.2c2.1-2.1,2.9-4.3,2.9-6.7c0-2.9-1.1-4.9-3.2-6.7
		c-2.1-1.8-5.3-2.7-9.1-2.7h-12.3h-0.3v38.2h6.7v-0.7c-0.3-1.1-0.3-3.2-0.3-7.8c0,0,0-24.2,0-25.2c6.2,0,8.8,0.6,9.7,1.4
		c1.1,0.8,2.1,2.4,2.1,4.1c0,4.1-3.2,6.7-9.4,7.6h-0.6l13.4,17.2c1.4,2.1,3.8,2.9,7,2.9h5.6l-1.1-0.8
		C138.4,494.5,135.5,491.5,132.8,488.3L132.8,488.3z"/>
	<path class="st0" d="M443.6,488.3c0,0-6.4-7.8-7.8-9.9c1.1-0.6,3.5-1.4,5.3-3.2c2.1-2.1,2.9-4.3,2.9-6.7c0-2.9-1.1-4.9-3.2-6.7
		c-2.1-1.8-5.3-2.7-9.1-2.7h-12.3h-0.3v38.2h6.7v-0.7c-0.3-1.1-0.3-3.2-0.3-7.8c0,0,0-24.2,0-25.2c6.2,0,8.8,0.6,9.7,1.4
		c1.1,0.8,2.1,2.4,2.1,4.1c0,4.1-3.2,6.7-9.4,7.6h-0.6l13.4,17.2c1.4,2.1,3.8,2.9,7,2.9h5.6l-1.1-0.8
		C448.9,494.5,446,491.5,443.6,488.3L443.6,488.3z"/>
</g>
</svg>
